<svg width="29" height="29" viewBox="0 0 29 29" fill="none" xmlns="http://www.w3.org/2000/svg">
<path d="M17.8125 6.75C19.0335 6.98821 20.1555 7.58532 21.0351 8.46492C21.9147 9.34452 22.5118 10.4666 22.75 11.6875L17.8125 6.75ZM17.8125 1.75C20.3491 2.0318 22.7145 3.16772 24.5203 4.97126C26.3262 6.7748 27.4651 9.13876 27.75 11.675L17.8125 1.75ZM26.5 21.65V25.4C26.5015 25.7481 26.4301 26.0927 26.2907 26.4117C26.1512 26.7307 25.9467 27.017 25.6901 27.2523C25.4336 27.4877 25.1308 27.6669 24.801 27.7784C24.4712 27.8899 24.1218 27.9313 23.775 27.9C19.9286 27.4821 16.2338 26.1677 12.9875 24.0625C9.96732 22.1433 7.40671 19.5827 5.48754 16.5625C3.37501 13.3015 2.06034 9.58874 1.65004 5.725C1.6188 5.37933 1.65988 5.03095 1.77066 4.70203C1.88145 4.37311 2.0595 4.07086 2.2935 3.81453C2.52749 3.55819 2.81229 3.35339 3.12978 3.21315C3.44726 3.07292 3.79046 3.00033 4.13754 3H7.88754C8.49417 2.99403 9.08228 3.20885 9.54224 3.60442C10.0022 3.99998 10.3026 4.54931 10.3875 5.15C10.5458 6.35008 10.8394 7.52841 11.2625 8.6625C11.4307 9.1099 11.4671 9.59614 11.3674 10.0636C11.2677 10.5311 11.0361 10.9601 10.7 11.3L9.11254 12.8875C10.892 16.0169 13.4831 18.6081 16.6125 20.3875L18.2 18.8C18.5399 18.4639 18.969 18.2323 19.4364 18.1326C19.9039 18.0329 20.3901 18.0693 20.8375 18.2375C21.9716 18.6607 23.15 18.9542 24.35 19.1125C24.9572 19.1982 25.5118 19.504 25.9082 19.9719C26.3046 20.4397 26.5152 21.037 26.5 21.65Z" stroke="#7A9CA5" stroke-width="2" stroke-linecap="round" stroke-linejoin="round"/>
</svg>
